<svg width="61" height="61" viewBox="0 0 61 61" fill="none" xmlns="http://www.w3.org/2000/svg">
<path d="M0 20.3534C0 15.5499 3.39048 11.4142 8.10068 10.4722L48.4084 2.41063C54.6439 1.16353 60.4615 5.93287 60.4615 12.2919V40.1081C60.4615 44.9116 57.0711 49.0473 52.3609 49.9894L12.0532 58.0509C5.81765 59.298 0 54.5287 0 48.1697V20.3534Z" fill="url(#paint0_linear_10_1276)"/>
<path d="M48.5068 2.9043C54.4306 1.71955 59.958 6.25094 59.958 12.292V40.1084C59.9579 44.529 56.9347 48.354 52.6777 49.4023L52.2617 49.4951L11.9541 57.5566C6.03052 58.7412 0.504062 54.2108 0.503906 48.1699V20.3535C0.503906 15.9326 3.52682 12.1068 7.78418 11.0586L8.19922 10.9658L48.5068 2.9043Z" stroke="url(#paint1_linear_10_1276)" stroke-opacity="0.6" stroke-width="1.00769" style="mix-blend-mode:overlay"/>
<g filter="url(#filter0_d_10_1276)">
<path d="M41.649 39.8924L37.0142 35.2916C38.8133 33.0468 39.6845 30.1974 39.4488 27.3295C39.2131 24.4615 37.8883 21.7929 35.7469 19.8724C33.6055 17.9519 30.8102 16.9255 27.9358 17.0042C25.0614 17.0829 22.3264 18.2608 20.2931 20.2956C18.2598 22.3304 17.0829 25.0675 17.0042 27.9441C16.9256 30.8207 17.9512 33.6181 19.8702 35.7611C21.7893 37.9042 24.4558 39.2299 27.3216 39.4658C30.1874 39.7018 33.0346 38.8299 35.2778 37.0294L39.875 41.6302C39.9912 41.7474 40.1293 41.8404 40.2816 41.9039C40.4338 41.9673 40.5971 42 40.762 42C40.9269 42 41.0902 41.9673 41.2424 41.9039C41.3947 41.8404 41.5328 41.7474 41.649 41.6302C41.8741 41.3971 42 41.0855 42 40.7613C42 40.4371 41.8741 40.1255 41.649 39.8924ZM28.2694 37.0294C26.5399 37.0294 24.8491 36.5162 23.4111 35.5545C21.973 34.5929 20.8522 33.2261 20.1903 31.627C19.5284 30.0279 19.3552 28.2683 19.6927 26.5707C20.0301 24.8731 20.8629 23.3137 22.0859 22.0898C23.3089 20.8659 24.8671 20.0324 26.5634 19.6947C28.2597 19.357 30.018 19.5303 31.6159 20.1927C33.2138 20.8551 34.5796 21.9768 35.5405 23.4159C36.5014 24.8551 37.0142 26.5471 37.0142 28.278C37.0142 30.599 36.0929 32.825 34.4529 34.4662C32.813 36.1074 30.5887 37.0294 28.2694 37.0294Z" fill="white"/>
</g>
<defs>
<filter id="filter0_d_10_1276" x="7" y="12" width="45" height="45" filterUnits="userSpaceOnUse" color-interpolation-filters="sRGB">
<feFlood flood-opacity="0" result="BackgroundImageFix"/>
<feColorMatrix in="SourceAlpha" type="matrix" values="0 0 0 0 0 0 0 0 0 0 0 0 0 0 0 0 0 0 127 0" result="hardAlpha"/>
<feOffset dy="5"/>
<feGaussianBlur stdDeviation="5"/>
<feComposite in2="hardAlpha" operator="out"/>
<feColorMatrix type="matrix" values="0 0 0 0 0 0 0 0 0 0 0 0 0 0 0 0 0 0 0.25 0"/>
<feBlend mode="normal" in2="BackgroundImageFix" result="effect1_dropShadow_10_1276"/>
<feBlend mode="normal" in="SourceGraphic" in2="effect1_dropShadow_10_1276" result="shape"/>
</filter>
<linearGradient id="paint0_linear_10_1276" x1="3.02308" y1="-3.21221e-07" x2="45.1351" y2="81.6663" gradientUnits="userSpaceOnUse">
<stop stop-color="#34C8E8"/>
<stop offset="1" stop-color="#4E4AF2"/>
</linearGradient>
<linearGradient id="paint1_linear_10_1276" x1="0" y1="0" x2="34.3372" y2="72.7859" gradientUnits="userSpaceOnUse">
<stop stop-color="white"/>
<stop offset="1"/>
</linearGradient>
</defs>
</svg>
