<svg width="61" height="61" viewBox="0 0 61 61" fill="none" xmlns="http://www.w3.org/2000/svg">
<path d="M0 20.3534C0 15.5499 3.39048 11.4142 8.10068 10.4722L48.4084 2.41063C54.6439 1.16353 60.4615 5.93287 60.4615 12.2919V40.1081C60.4615 44.9116 57.0711 49.0473 52.3609 49.9894L12.0532 58.0509C5.81765 59.298 0 54.5287 0 48.1697V20.3534Z" fill="url(#paint0_linear_10_1321)"/>
<path d="M48.5068 2.9043C54.4306 1.71955 59.958 6.25094 59.958 12.292V40.1084C59.9579 44.6716 56.7363 48.6002 52.2617 49.4951L11.9541 57.5566C6.03052 58.7412 0.504061 54.2108 0.503906 48.1699V20.3535C0.503906 15.7903 3.72462 11.8608 8.19922 10.9658L48.5068 2.9043Z" stroke="url(#paint1_linear_10_1321)" stroke-opacity="0.6" stroke-width="1.00769" style="mix-blend-mode:overlay"/>
<g filter="url(#filter0_d_10_1321)">
<path d="M35.8333 17H23.1667C22.3268 17 21.5214 17.3292 20.9275 17.9153C20.3336 18.5013 20 19.2962 20 20.125V38.875C20 39.7038 20.3336 40.4987 20.9275 41.0847C21.5214 41.6708 22.3268 42 23.1667 42H35.8333C36.6732 42 37.4786 41.6708 38.0725 41.0847C38.6664 40.4987 39 39.7038 39 38.875V20.125C39 19.2962 38.6664 18.5013 38.0725 17.9153C37.4786 17.3292 36.6732 17 35.8333 17ZM30.2917 24.0312V25.0219L31.1609 24.5266C31.251 24.4745 31.3506 24.4404 31.4541 24.4265C31.5575 24.4125 31.6627 24.4189 31.7636 24.4452C31.8646 24.4716 31.9592 24.5173 32.0422 24.5799C32.1251 24.6425 32.1947 24.7207 32.2469 24.8099C32.2991 24.8991 32.3329 24.9977 32.3464 25.0998C32.3598 25.202 32.3527 25.3058 32.3253 25.4052C32.298 25.5047 32.2509 25.5978 32.187 25.6792C32.123 25.7606 32.0433 25.8288 31.9526 25.8797L31.0833 26.375L31.9526 26.8703C32.0433 26.9212 32.123 26.9894 32.187 27.0708C32.2509 27.1522 32.298 27.2453 32.3253 27.3448C32.3527 27.4442 32.3598 27.548 32.3464 27.6502C32.3329 27.7523 32.2991 27.8509 32.2469 27.9401C32.1947 28.0293 32.1251 28.1075 32.0422 28.1701C31.9592 28.2327 31.8646 28.2784 31.7636 28.3048C31.6627 28.3311 31.5575 28.3375 31.4541 28.3235C31.3506 28.3096 31.251 28.2755 31.1609 28.2234L30.2917 27.7281V28.7188C30.2917 28.926 30.2083 29.1247 30.0598 29.2712C29.9113 29.4177 29.71 29.5 29.5 29.5C29.29 29.5 29.0887 29.4177 28.9402 29.2712C28.7917 29.1247 28.7083 28.926 28.7083 28.7188V27.7281L27.8391 28.2234C27.749 28.2755 27.6494 28.3096 27.5459 28.3235C27.4425 28.3375 27.3373 28.3311 27.2364 28.3048C27.1354 28.2784 27.0408 28.2327 26.9578 28.1701C26.8749 28.1075 26.8053 28.0293 26.7531 27.9401C26.7009 27.8509 26.6671 27.7523 26.6536 27.6502C26.6402 27.548 26.6473 27.4442 26.6747 27.3448C26.702 27.2453 26.7491 27.1522 26.813 27.0708C26.877 26.9894 26.9567 26.9212 27.0474 26.8703L27.9167 26.375L27.0474 25.8797C26.8671 25.7754 26.7359 25.6049 26.6824 25.4054C26.629 25.206 26.6577 24.9937 26.7622 24.8151C26.8667 24.6364 27.0386 24.5058 27.2404 24.4518C27.4421 24.3977 27.6574 24.4246 27.8391 24.5266L28.7083 25.0219V24.0312C28.7083 23.824 28.7917 23.6253 28.9402 23.4788C29.0887 23.3323 29.29 23.25 29.5 23.25C29.71 23.25 29.9113 23.3323 30.0598 23.4788C30.2083 23.6253 30.2917 23.824 30.2917 24.0312ZM25.5417 31.0625H33.4583C33.6683 31.0625 33.8697 31.1448 34.0181 31.2913C34.1666 31.4378 34.25 31.6365 34.25 31.8438C34.25 32.051 34.1666 32.2497 34.0181 32.3962C33.8697 32.5427 33.6683 32.625 33.4583 32.625H25.5417C25.3317 32.625 25.1303 32.5427 24.9819 32.3962C24.8334 32.2497 24.75 32.051 24.75 31.8438C24.75 31.6365 24.8334 31.4378 24.9819 31.2913C25.1303 31.1448 25.3317 31.0625 25.5417 31.0625ZM25.5417 34.1875H33.4583C33.6683 34.1875 33.8697 34.2698 34.0181 34.4163C34.1666 34.5628 34.25 34.7615 34.25 34.9688C34.25 35.176 34.1666 35.3747 34.0181 35.5212C33.8697 35.6677 33.6683 35.75 33.4583 35.75H25.5417C25.3317 35.75 25.1303 35.6677 24.9819 35.5212C24.8334 35.3747 24.75 35.176 24.75 34.9688C24.75 34.7615 24.8334 34.5628 24.9819 34.4163C25.1303 34.2698 25.3317 34.1875 25.5417 34.1875Z" fill="white"/>
</g>
<defs>
<filter id="filter0_d_10_1321" x="10" y="12" width="39" height="45" filterUnits="userSpaceOnUse" color-interpolation-filters="sRGB">
<feFlood flood-opacity="0" result="BackgroundImageFix"/>
<feColorMatrix in="SourceAlpha" type="matrix" values="0 0 0 0 0 0 0 0 0 0 0 0 0 0 0 0 0 0 127 0" result="hardAlpha"/>
<feOffset dy="5"/>
<feGaussianBlur stdDeviation="5"/>
<feComposite in2="hardAlpha" operator="out"/>
<feColorMatrix type="matrix" values="0 0 0 0 0 0 0 0 0 0 0 0 0 0 0 0 0 0 0.25 0"/>
<feBlend mode="normal" in2="BackgroundImageFix" result="effect1_dropShadow_10_1321"/>
<feBlend mode="normal" in="SourceGraphic" in2="effect1_dropShadow_10_1321" result="shape"/>
</filter>
<linearGradient id="paint0_linear_10_1321" x1="3.02308" y1="-3.21221e-07" x2="45.1351" y2="81.6663" gradientUnits="userSpaceOnUse">
<stop stop-color="#34C8E8"/>
<stop offset="1" stop-color="#4E4AF2"/>
</linearGradient>
<linearGradient id="paint1_linear_10_1321" x1="0" y1="0" x2="34.3372" y2="72.7859" gradientUnits="userSpaceOnUse">
<stop stop-color="white"/>
<stop offset="1"/>
</linearGradient>
</defs>
</svg>
