<svg width="61" height="61" viewBox="0 0 61 61" fill="none" xmlns="http://www.w3.org/2000/svg">
<path d="M0 20.3534C0 15.5499 3.39048 11.4142 8.10068 10.4722L48.4084 2.41063C54.6439 1.16353 60.4615 5.93287 60.4615 12.2919V40.1081C60.4615 44.9116 57.0711 49.0473 52.3609 49.9894L12.0532 58.0509C5.81765 59.298 0 54.5287 0 48.1697V20.3534Z" fill="url(#paint0_linear_10_1312)"/>
<path d="M48.5068 2.9043C54.4306 1.71955 59.958 6.25094 59.958 12.292V40.1084C59.9579 44.529 56.9347 48.354 52.6777 49.4023L52.2617 49.4951L11.9541 57.5566C6.03052 58.7412 0.504062 54.2108 0.503906 48.1699V20.3535C0.503906 15.9326 3.52682 12.1068 7.78418 11.0586L8.19922 10.9658L48.5068 2.9043Z" stroke="url(#paint1_linear_10_1312)" stroke-opacity="0.6" stroke-width="1.00769" style="mix-blend-mode:overlay"/>
<g filter="url(#filter0_d_10_1312)">
<path d="M19.4826 19.4809C18.6956 20.2678 18.0712 21.2022 17.6452 22.2304C17.2192 23.2587 17 24.3609 17 25.4739C17 26.587 17.2192 27.6891 17.6452 28.7174C18.0712 29.7457 18.6956 30.68 19.4826 31.4669L22.6798 34.663L23.297 34.5445H23.2982L23.3157 34.5408L23.408 34.5183C23.4936 34.4984 23.6245 34.4606 23.8007 34.4049C24.1524 34.2926 24.6699 34.1018 25.3095 33.7938C26.5864 33.1791 28.3495 32.0929 30.2212 30.22C32.0928 28.3482 33.1789 26.585 33.7949 25.3081C34.1029 24.6696 34.2936 24.1509 34.4059 23.7992C34.4577 23.6394 34.503 23.4776 34.5418 23.3141L34.5455 23.2967L34.664 22.6782L31.4681 19.4821C30.6812 18.6952 29.747 18.071 28.7189 17.6451C27.6908 17.2192 26.5888 17 25.476 17C24.3632 17 23.2612 17.2192 22.2331 17.6451C21.205 18.071 20.2708 18.6952 19.4839 19.4821M36.2276 24.2406L36.1877 24.3691C36.0506 24.7968 35.8286 25.3966 35.4795 26.1199C34.7812 27.5689 33.5779 29.5092 31.5442 31.543C29.5104 33.5769 27.5702 34.7814 26.1213 35.4798C25.5141 35.7746 24.8861 36.0243 24.2422 36.2267L27.4729 39.4564C28.2568 40.2565 29.1916 40.8932 30.2231 41.3298C31.2546 41.7664 32.3624 41.9941 33.4824 41.9999C34.6025 42.0056 35.7126 41.7893 36.7485 41.3633C37.7844 40.9373 38.7256 40.3102 39.5177 39.5182C40.3097 38.7262 40.9369 37.785 41.363 36.7491C41.789 35.7131 42.0055 34.603 41.9999 33.4829C41.9943 32.3628 41.7666 31.2549 41.3302 30.2233C40.8937 29.1917 40.2571 28.2569 39.4572 27.4728L36.2276 24.2406Z" fill="white"/>
</g>
<defs>
<filter id="filter0_d_10_1312" x="7" y="12" width="45" height="45" filterUnits="userSpaceOnUse" color-interpolation-filters="sRGB">
<feFlood flood-opacity="0" result="BackgroundImageFix"/>
<feColorMatrix in="SourceAlpha" type="matrix" values="0 0 0 0 0 0 0 0 0 0 0 0 0 0 0 0 0 0 127 0" result="hardAlpha"/>
<feOffset dy="5"/>
<feGaussianBlur stdDeviation="5"/>
<feComposite in2="hardAlpha" operator="out"/>
<feColorMatrix type="matrix" values="0 0 0 0 0 0 0 0 0 0 0 0 0 0 0 0 0 0 0.25 0"/>
<feBlend mode="normal" in2="BackgroundImageFix" result="effect1_dropShadow_10_1312"/>
<feBlend mode="normal" in="SourceGraphic" in2="effect1_dropShadow_10_1312" result="shape"/>
</filter>
<linearGradient id="paint0_linear_10_1312" x1="3.02308" y1="-3.21221e-07" x2="45.1351" y2="81.6663" gradientUnits="userSpaceOnUse">
<stop stop-color="#34C8E8"/>
<stop offset="1" stop-color="#4E4AF2"/>
</linearGradient>
<linearGradient id="paint1_linear_10_1312" x1="0" y1="0" x2="34.3372" y2="72.7859" gradientUnits="userSpaceOnUse">
<stop stop-color="white"/>
<stop offset="1"/>
</linearGradient>
</defs>
</svg>
