<svg width="20" height="20" viewBox="0 0 20 20" fill="none" xmlns="http://www.w3.org/2000/svg">
<path d="M1.98611 1.98471C1.35644 2.61428 0.856958 3.36172 0.516178 4.18436C0.175398 5.00699 0 5.8887 0 6.77913C0 7.66957 0.175398 8.55128 0.516178 9.37391C0.856958 10.1965 1.35644 10.944 1.98611 11.5736L4.54381 14.1304L5.03759 14.0356H5.03859L5.05255 14.0326L5.12637 14.0147C5.19487 13.9987 5.29961 13.9684 5.4406 13.9239C5.7219 13.8341 6.13588 13.6815 6.64762 13.4351C7.6691 12.9432 9.07963 12.0743 10.5769 10.576C12.0742 9.07858 12.9431 7.66799 13.4359 6.64645C13.6823 6.13569 13.8349 5.72069 13.9247 5.43937C13.9661 5.31153 14.0024 5.18207 14.0334 5.05131L14.0364 5.03734L14.1312 4.54254L11.5745 1.98571C10.945 1.35616 10.1976 0.856778 9.37512 0.516069C8.55261 0.17536 7.67106 0 6.78079 0C5.89052 0 5.00897 0.17536 4.18647 0.516069C3.36397 0.856778 2.61662 1.35616 1.98711 1.98571M15.3821 5.79252L15.3502 5.89527C15.2404 6.23744 15.0629 6.71728 14.7836 7.29589C14.2249 8.45509 13.2623 10.0073 11.6353 11.6344C10.0083 13.2615 8.45616 14.2252 7.29702 14.7838C6.81131 15.0197 6.30884 15.2194 5.79373 15.3814L8.37836 17.9651C9.00547 18.6052 9.75324 19.1146 10.5784 19.4639C11.4036 19.8131 12.2899 19.9953 13.1859 19.9999C14.082 20.0045 14.9701 19.8314 15.7988 19.4906C16.6275 19.1499 17.3805 18.6481 18.0141 18.0145C18.6478 17.3809 19.1495 16.628 19.4904 15.7992C19.8312 14.9705 20.0044 14.0824 19.9999 13.1863C19.9954 12.2902 19.8133 11.4039 19.4642 10.5786C19.115 9.75335 18.6057 9.00548 17.9657 8.37827L15.3821 5.79252Z" fill="white" fill-opacity="0.6"/>
</svg>
