<svg width="15" height="20" viewBox="0 0 15 20" fill="none" xmlns="http://www.w3.org/2000/svg">
<path d="M12.5 0H2.5C1.83696 0 1.20107 0.263392 0.732233 0.732233C0.263392 1.20107 0 1.83696 0 2.5V17.5C0 18.163 0.263392 18.7989 0.732233 19.2678C1.20107 19.7366 1.83696 20 2.5 20H12.5C13.163 20 13.7989 19.7366 14.2678 19.2678C14.7366 18.7989 15 18.163 15 17.5V2.5C15 1.83696 14.7366 1.20107 14.2678 0.732233C13.7989 0.263392 13.163 0 12.5 0ZM8.125 5.625V6.4175L8.81125 6.02125C8.88236 5.97956 8.96101 5.95235 9.04267 5.94119C9.12434 5.93002 9.2074 5.93512 9.28709 5.95619C9.36678 5.97726 9.44151 6.01388 9.50699 6.06395C9.57246 6.11401 9.62739 6.17654 9.6686 6.24792C9.70982 6.3193 9.7365 6.39813 9.74713 6.47987C9.75775 6.56161 9.7521 6.64464 9.73051 6.72418C9.70891 6.80373 9.67179 6.87822 9.62129 6.94336C9.57079 7.0085 9.5079 7.06301 9.43625 7.10375L8.75 7.5L9.43625 7.89625C9.5079 7.93699 9.57079 7.9915 9.62129 8.05664C9.67179 8.12178 9.70891 8.19627 9.73051 8.27582C9.7521 8.35536 9.75775 8.43839 9.74713 8.52013C9.7365 8.60187 9.70982 8.6807 9.6686 8.75208C9.62739 8.82346 9.57246 8.88599 9.50699 8.93605C9.44151 8.98612 9.36678 9.02274 9.28709 9.04381C9.2074 9.06488 9.12434 9.06998 9.04267 9.05881C8.96101 9.04765 8.88236 9.02044 8.81125 8.97875L8.125 8.5825V9.375C8.125 9.54076 8.05915 9.69973 7.94194 9.81694C7.82473 9.93415 7.66576 10 7.5 10C7.33424 10 7.17527 9.93415 7.05806 9.81694C6.94085 9.69973 6.875 9.54076 6.875 9.375V8.5825L6.18875 8.97875C6.11764 9.02044 6.03899 9.04765 5.95733 9.05881C5.87566 9.06998 5.7926 9.06488 5.71291 9.04381C5.63322 9.02274 5.55849 8.98612 5.49301 8.93605C5.42754 8.88599 5.37261 8.82346 5.3314 8.75208C5.29018 8.6807 5.2635 8.60187 5.25287 8.52013C5.24225 8.43839 5.2479 8.35536 5.26949 8.27582C5.29109 8.19627 5.32821 8.12178 5.37871 8.05664C5.42921 7.9915 5.4921 7.93699 5.56375 7.89625L6.25 7.5L5.56375 7.10375C5.42137 7.02028 5.31779 6.88388 5.2756 6.72432C5.23342 6.56476 5.25606 6.395 5.33858 6.25207C5.4211 6.10914 5.55681 6.00465 5.71608 5.96141C5.87536 5.91816 6.04528 5.93968 6.18875 6.02125L6.875 6.4175V5.625C6.875 5.45924 6.94085 5.30027 7.05806 5.18306C7.17527 5.06585 7.33424 5 7.5 5C7.66576 5 7.82473 5.06585 7.94194 5.18306C8.05915 5.30027 8.125 5.45924 8.125 5.625ZM4.375 11.25H10.625C10.7908 11.25 10.9497 11.3158 11.0669 11.4331C11.1842 11.5503 11.25 11.7092 11.25 11.875C11.25 12.0408 11.1842 12.1997 11.0669 12.3169C10.9497 12.4342 10.7908 12.5 10.625 12.5H4.375C4.20924 12.5 4.05027 12.4342 3.93306 12.3169C3.81585 12.1997 3.75 12.0408 3.75 11.875C3.75 11.7092 3.81585 11.5503 3.93306 11.4331C4.05027 11.3158 4.20924 11.25 4.375 11.25ZM4.375 13.75H10.625C10.7908 13.75 10.9497 13.8158 11.0669 13.9331C11.1842 14.0503 11.25 14.2092 11.25 14.375C11.25 14.5408 11.1842 14.6997 11.0669 14.8169C10.9497 14.9342 10.7908 15 10.625 15H4.375C4.20924 15 4.05027 14.9342 3.93306 14.8169C3.81585 14.6997 3.75 14.5408 3.75 14.375C3.75 14.2092 3.81585 14.0503 3.93306 13.9331C4.05027 13.8158 4.20924 13.75 4.375 13.75Z" fill="white" fill-opacity="0.6"/>
</svg>
