<svg width="68" height="68" viewBox="0 0 68 68" fill="none" xmlns="http://www.w3.org/2000/svg">
<rect width="68" height="68" rx="10" fill="url(#paint0_linear_1002_1263)"/>
<rect x="0.5" y="0.5" width="67" height="67" rx="9.5" stroke="url(#paint1_linear_1002_1263)" stroke-opacity="0.6" style="mix-blend-mode:overlay"/>
<path d="M39.7 9C40.7494 9.00027 41.7721 9.33071 42.6233 9.94452C43.4744 10.5583 44.1109 11.4244 44.4425 12.42L45.8 16.5H54C54.663 16.5 55.2989 16.7634 55.7678 17.2322C56.2366 17.7011 56.5 18.337 56.5 19C56.5 19.663 56.2366 20.2989 55.7678 20.7678C55.2989 21.2366 54.663 21.5 54 21.5L53.9925 21.6775L51.825 52.035C51.6897 53.9265 50.8429 55.6966 49.4551 56.9889C48.0672 58.2812 46.2414 58.9998 44.345 59H23.655C21.7586 58.9998 19.9328 58.2812 18.5449 56.9889C17.1571 55.6966 16.3103 53.9265 16.175 52.035L14.0075 21.675L14 21.5C13.337 21.5 12.7011 21.2366 12.2322 20.7678C11.7634 20.2989 11.5 19.663 11.5 19C11.5 18.337 11.7634 17.7011 12.2322 17.2322C12.7011 16.7634 13.337 16.5 14 16.5H22.2L23.5575 12.42C23.8892 11.424 24.5261 10.5576 25.3777 9.94379C26.2294 9.32995 27.2527 8.99975 28.3025 9H39.7ZM48.9925 21.5H19.0075L21.1625 51.6775C21.2074 52.308 21.4894 52.8981 21.9519 53.329C22.4144 53.76 23.0229 53.9997 23.655 54H44.345C44.9771 53.9997 45.5856 53.76 46.0481 53.329C46.5106 52.8981 46.7926 52.308 46.8375 51.6775L48.9925 21.5ZM29 29C29.6123 29.0001 30.2033 29.2249 30.6609 29.6318C31.1185 30.0387 31.4109 30.5994 31.4825 31.2075L31.5 31.5V44C31.4993 44.6372 31.2553 45.2501 30.8179 45.7134C30.3805 46.1768 29.7826 46.4556 29.1465 46.4929C28.5104 46.5303 27.8841 46.3233 27.3954 45.9143C26.9068 45.5054 26.5928 44.9252 26.5175 44.2925L26.5 44V31.5C26.5 30.837 26.7634 30.2011 27.2322 29.7322C27.7011 29.2634 28.337 29 29 29ZM39 29C39.663 29 40.2989 29.2634 40.7678 29.7322C41.2366 30.2011 41.5 30.837 41.5 31.5V44C41.5 44.663 41.2366 45.2989 40.7678 45.7678C40.2989 46.2366 39.663 46.5 39 46.5C38.337 46.5 37.7011 46.2366 37.2322 45.7678C36.7634 45.2989 36.5 44.663 36.5 44V31.5C36.5 30.837 36.7634 30.2011 37.2322 29.7322C37.7011 29.2634 38.337 29 39 29ZM39.7 14H28.3L27.4675 16.5H40.5325L39.7 14Z" fill="black"/>
<defs>
<linearGradient id="paint0_linear_1002_1263" x1="3.4" y1="-3.61272e-07" x2="50.7626" y2="91.8486" gradientUnits="userSpaceOnUse">
<stop stop-color="#34C8E8"/>
<stop offset="1" stop-color="#4E4AF2"/>
</linearGradient>
<linearGradient id="paint1_linear_1002_1263" x1="0" y1="0" x2="38.6185" y2="81.8609" gradientUnits="userSpaceOnUse">
<stop stop-color="white"/>
<stop offset="1"/>
</linearGradient>
</defs>
</svg>
