<svg width="25" height="25" viewBox="0 0 25 25" fill="none" xmlns="http://www.w3.org/2000/svg">
<g filter="url(#filter0_i_81_1086)">
<path d="M13.8889 0C14.2429 0.000392649 14.5834 0.135943 14.8408 0.378956C15.0982 0.621969 15.2531 0.954101 15.2738 1.30749C15.2946 1.66088 15.1796 2.00886 14.9524 2.28032C14.7252 2.55179 14.4029 2.72624 14.0514 2.76806L13.8889 2.77778H2.77778V22.2222H22.2222V11.1111C22.2226 10.7571 22.3582 10.4166 22.6012 10.1592C22.8442 9.9018 23.1763 9.7469 23.5297 9.72615C23.8831 9.7054 24.2311 9.82038 24.5025 10.0476C24.774 10.2748 24.9485 10.5971 24.9903 10.9486L25 11.1111V22.2222C25.0002 22.923 24.7355 23.598 24.259 24.1119C23.7825 24.6257 23.1294 24.9405 22.4306 24.9931L22.2222 25H2.77778C2.07698 25.0002 1.40199 24.7355 0.888128 24.259C0.374265 23.7825 0.0595047 23.1294 0.00694474 22.4306L1.39261e-07 22.2222V2.77778C-0.000221638 2.07698 0.264453 1.40199 0.740968 0.888128C1.21748 0.374265 1.87062 0.0595046 2.56944 0.0069446L2.77778 0H13.8889ZM22.5597 0.476389C22.8097 0.227294 23.145 0.0826757 23.4978 0.0719054C23.8505 0.0611351 24.194 0.185021 24.4587 0.418401C24.7234 0.651781 24.8893 0.977155 24.9228 1.32844C24.9562 1.67972 24.8547 2.03057 24.6389 2.30972L24.5236 2.44167L10.7736 16.1903C10.5237 16.4394 10.1883 16.584 9.83558 16.5948C9.48287 16.6055 9.13929 16.4816 8.87461 16.2483C8.60994 16.0149 8.44402 15.6895 8.41056 15.3382C8.37709 14.9869 8.47859 14.6361 8.69444 14.3569L8.80972 14.2264L22.5597 0.476389Z" fill="white"/>
</g>
<defs>
<filter id="filter0_i_81_1086" x="0" y="0" width="25" height="25" filterUnits="userSpaceOnUse" color-interpolation-filters="sRGB">
<feFlood flood-opacity="0" result="BackgroundImageFix"/>
<feBlend mode="normal" in="SourceGraphic" in2="BackgroundImageFix" result="shape"/>
<feColorMatrix in="SourceAlpha" type="matrix" values="0 0 0 0 0 0 0 0 0 0 0 0 0 0 0 0 0 0 127 0" result="hardAlpha"/>
<feOffset/>
<feGaussianBlur stdDeviation="0.5"/>
<feComposite in2="hardAlpha" operator="arithmetic" k2="-1" k3="1"/>
<feColorMatrix type="matrix" values="0 0 0 0 0 0 0 0 0 0 0 0 0 0 0 0 0 0 1 0"/>
<feBlend mode="normal" in2="shape" result="effect1_innerShadow_81_1086"/>
</filter>
</defs>
</svg>
