<svg width="68" height="68" viewBox="0 0 68 68" fill="none" xmlns="http://www.w3.org/2000/svg">
<rect width="68" height="68" rx="10" fill="url(#paint0_linear_1002_1260)"/>
<rect x="0.5" y="0.5" width="67" height="67" rx="9.5" stroke="url(#paint1_linear_1002_1260)" stroke-opacity="0.6" style="mix-blend-mode:overlay"/>
<path d="M36.7778 9C37.4858 9.00079 38.1668 9.27189 38.6816 9.75791C39.1964 10.2439 39.5062 10.9082 39.5477 11.615C39.5892 12.3218 39.3592 13.0177 38.9048 13.5606C38.4504 14.1036 37.8058 14.4525 37.1028 14.5361L36.7778 14.5556H14.5556V53.4444H53.4444V31.2222C53.4452 30.5142 53.7163 29.8332 54.2024 29.3184C54.6884 28.8036 55.3526 28.4938 56.0594 28.4523C56.7662 28.4108 57.4622 28.6408 58.0051 29.0952C58.548 29.5496 58.8969 30.1942 58.9806 30.8972L59 31.2222V53.4444C59.0004 54.846 58.4711 56.196 57.5181 57.2237C56.565 58.2515 55.2588 58.881 53.8611 58.9861L53.4444 59H14.5556C13.154 59.0004 11.804 58.4711 10.7763 57.5181C9.74853 56.565 9.11901 55.2588 9.01389 53.8611L9 53.4444V14.5556C8.99956 13.154 9.52891 11.804 10.4819 10.7763C11.435 9.74853 12.7412 9.11901 14.1389 9.01389L14.5556 9H36.7778ZM54.1194 9.95278C54.6193 9.45459 55.2901 9.16535 55.9955 9.14381C56.7009 9.12227 57.3881 9.37004 57.9174 9.8368C58.4468 10.3036 58.7786 10.9543 58.8456 11.6569C58.9125 12.3594 58.7095 13.0611 58.2778 13.6194L58.0472 13.8833L30.5472 41.3806C30.0473 41.8787 29.3766 42.168 28.6712 42.1895C27.9657 42.2111 27.2786 41.9633 26.7492 41.4965C26.2199 41.0298 25.888 40.379 25.8211 39.6765C25.7542 38.9739 25.9572 38.2722 26.3889 37.7139L26.6194 37.4528L54.1194 9.95278Z" fill="black"/>
<defs>
<linearGradient id="paint0_linear_1002_1260" x1="3.4" y1="-3.61272e-07" x2="50.7626" y2="91.8486" gradientUnits="userSpaceOnUse">
<stop stop-color="#34C8E8"/>
<stop offset="1" stop-color="#4E4AF2"/>
</linearGradient>
<linearGradient id="paint1_linear_1002_1260" x1="0" y1="0" x2="38.6185" y2="81.8609" gradientUnits="userSpaceOnUse">
<stop stop-color="white"/>
<stop offset="1"/>
</linearGradient>
</defs>
</svg>
